Ip.Man.2.2010.1080p.DTS.mkv
***************************

TiTLE......  Yip Man 2  
AKA:         Ip Man 2
YEAR.......  2010
GENRE......  Action | Biography | History
iMDB RATE..  User Rating: 7.8/10 (2,446 votes)
iMDB URL...  http://www.imdb.com/title/tt1386932/
*************************************************

Video
Duration                         : 1h 47mn
Overall bit rate                 : 8 866 Kbps
Width                            : 1 920 pixels
Height                           : 816 pixels
Display aspect ratio             : 2.35:1
Frame rate                       : 23.976 fps
Stream size                      : 5.40 GiB (81%)

Audio
Format                           : DTS
Bit rate                         : 1 510 Kbps
Channel(s)                       : 6 channels
Channel positions                : Front: L C R, Surround: L R, LFE
Sampling rate                    : 48.0 KHz
Resolution                       : 24 bits
Stream size                      : 1.14 GiB (17%)
Language                         : Chinese (Cantonese)

Subtitles: English, French
**************************
